<?xml version="1.0" encoding="UTF-8"?>
<!DOCTYPE svg PUBLIC "-//W3C//DTD SVG 1.1//EN" "http://www.w3.org/Graphics/SVG/1.1/DTD/svg11.dtd">
<!-- Creator: CorelDRAW 2018 (64-Bit) -->
<svg xmlns="http://www.w3.org/2000/svg" xml:space="preserve" width="210mm" height="297mm" version="1.1" style="shape-rendering:geometricPrecision; text-rendering:geometricPrecision; image-rendering:optimizeQuality; fill-rule:evenodd; clip-rule:evenodd"
viewBox="0 0 21000 29700"
 xmlns:xlink="http://www.w3.org/1999/xlink">
 <defs>
  <style type="text/css">
   <![CDATA[
    .fil0 {fill:#EA548D;fill-rule:nonzero}
   ]]>
  </style>
 </defs>
 <g id="Слой_x0020_1">
  <metadata id="CorelCorpID_0Corel-Layer"/>
  <path class="fil0" d="M8651.66 19435.74l-283.98 0c-282.23,0 -525.64,-24.7 -730.25,-75.85 -206.38,-49.39 -386.29,-174.62 -539.75,-373.94 -155.23,-199.32 -254,-437.45 -292.81,-712.61 -38.8,-276.93 -63.5,-733.78 -70.55,-1375.84 0,-448.02 -17.64,-802.57 -52.92,-1063.62 -37.04,-262.82 -132.29,-483.31 -287.51,-661.46 -155.23,-179.92 -398.64,-273.4 -728.49,-278.69l0 -843.14c329.85,-7.06 573.26,-98.78 728.49,-276.93 155.22,-176.39 250.47,-396.88 287.51,-657.93 35.28,-262.82 52.92,-617.36 52.92,-1065.39 7.05,-636.76 29.98,-1091.85 68.79,-1367.01 37.04,-273.41 132.29,-511.53 285.75,-714.38 153.46,-204.61 333.37,-331.61 539.75,-382.76 206.37,-52.92 453.32,-77.61 739.07,-77.61l283.98 0 0 806.09 -158.75 0c-356.3,0 -592.66,63.5 -710.84,194.03 -119.95,128.76 -178.16,419.81 -178.16,874.89 0,754.94 -17.64,1301.75 -49.39,1638.65 -33.51,336.9 -125.23,620.89 -273.4,850.2 -149.93,229.3 -402.17,430.38 -758.47,601.48 352.78,141.11 619.12,370.42 804.33,687.92 183.45,317.5 276.93,866.07 276.93,1647.47 0,721.43 14.11,1162.4 45.86,1322.92 31.75,162.27 89.96,285.75 178.16,370.41 88.19,84.67 308.68,127 664.98,127l158.75 0 0 806.1z"/>
  <path id="1" class="fil0" d="M15530.82 14893.73c-331.61,5.29 -573.26,98.77 -726.72,275.16 -153.46,178.16 -246.94,395.11 -283.99,650.88 -35.27,257.53 -56.44,617.36 -59.97,1077.73 -5.29,635 -28.22,1088.32 -67.03,1361.73 -37.04,273.4 -132.29,513.29 -285.74,716.13 -153.46,202.85 -333.38,331.62 -539.75,382.77 -208.14,51.15 -453.32,77.61 -739.07,77.61l-283.99 0 0 -806.1 158.75 0c356.31,0 592.67,-65.26 710.85,-194.03 119.94,-128.76 178.15,-419.8 178.15,-871.36 0,-756.7 17.64,-1305.27 49.39,-1642.18 33.51,-338.66 123.47,-620.88 273.4,-850.19 149.93,-229.31 402.17,-428.63 758.47,-597.96 -352.77,-144.64 -619.12,-375.71 -804.33,-691.44 -183.44,-317.5 -276.93,-867.84 -276.93,-1649.24 0,-719.66 -14.11,-1160.64 -45.86,-1319.39 -31.75,-160.51 -89.96,-283.98 -178.15,-370.41 -88.2,-86.43 -308.68,-128.77 -664.99,-128.77l-158.75 0 0 -806.09 283.99 0c285.75,0 532.69,26.45 740.83,79.37 208.14,54.68 391.58,185.21 548.57,393.35 156.98,208.14 252.23,446.26 289.28,716.14 35.27,268.11 52.91,719.66 52.91,1352.9 0,444.5 19.41,797.28 54.68,1060.1 37.04,261.05 132.29,481.54 287.52,661.45 155.22,178.16 396.87,271.64 728.48,278.7l0 843.14z"/>
  <path id="2" class="fil0" d="M10618.4 11582.9c178.15,0 331.61,63.5 458.61,192.27 125.23,127 188.73,282.22 188.73,460.37 0,183.45 -63.5,340.43 -188.73,467.43 -127,128.77 -280.46,192.27 -458.61,192.27 -179.92,0 -335.14,-63.5 -462.14,-188.74 -128.77,-127 -192.27,-280.46 -192.27,-460.37 0,-179.92 67.03,-335.14 199.32,-465.67 134.06,-132.29 283.99,-197.56 455.09,-197.56zm-555.63 6974.42l-278.69 -342.19c705.55,-575.03 1058.33,-1056.57 1058.33,-1442.87 0,-45.86 -3.53,-100.54 -10.58,-165.8 -58.21,24.69 -116.42,42.33 -171.1,56.44 -56.45,14.11 -107.6,21.17 -156.99,21.17 -165.8,0 -299.86,-52.92 -400.4,-160.51 -100.54,-107.6 -149.93,-243.42 -149.93,-409.23 0,-162.27 59.97,-303.38 181.68,-423.33 119.94,-121.71 266.35,-181.68 435.68,-181.68 234.6,0 435.68,93.49 603.25,282.22 167.57,186.97 250.47,430.39 250.47,726.72 0,194.03 -38.8,396.88 -118.18,608.55 -79.37,211.66 -194.03,409.22 -345.72,589.13 -151.69,181.69 -451.56,462.14 -897.82,841.38z"/>
 </g>
</svg>
