<svg width="100" height="100" viewBox="0 0 100 100" fill="none" xmlns="http://www.w3.org/2000/svg">
<path d="M30.5166 99.3574H27.6768C24.8545 99.3574 22.4204 99.1104 20.3743 98.5989C18.3105 98.105 16.5114 96.8527 14.9768 94.8595C13.4245 92.8663 12.4368 90.485 12.0487 87.7334C11.6607 84.9641 11.4137 80.3956 11.3432 73.975C11.3432 69.4948 11.1668 65.9493 10.814 63.3388C10.4436 60.7106 9.49109 58.5057 7.93889 56.7242C6.38659 54.925 3.95249 53.9902 0.653992 53.9373V45.5059C3.95249 45.4353 6.38659 44.5181 7.93889 42.7366C9.49109 40.9727 10.4436 38.7678 10.814 36.1573C11.1668 33.5291 11.3432 29.9837 11.3432 25.5034C11.4137 19.1358 11.643 14.5849 12.0311 11.8333C12.4015 9.09922 13.354 6.71802 14.8886 4.68952C16.4232 2.64342 18.2223 1.37342 20.2861 0.861919C22.3498 0.332719 24.8193 0.0858154 27.6768 0.0858154H30.5166V8.14671H28.9291C25.3661 8.14671 23.0025 8.78172 21.8207 10.087C20.6212 11.3746 20.0391 14.2851 20.0391 18.8359C20.0391 26.3853 19.8627 31.8534 19.5452 35.2224C19.2101 38.5914 18.2929 41.4313 16.8112 43.7244C15.3119 46.0174 12.7895 48.0282 9.22649 49.7392C12.7543 51.1503 15.4177 53.4434 17.2698 56.6184C19.1043 59.7934 20.0391 65.2791 20.0391 73.0931C20.0391 80.3074 20.1802 84.7171 20.4977 86.3223C20.8152 87.945 21.3973 89.1798 22.2793 90.0264C23.1612 90.8731 25.3661 91.2964 28.9291 91.2964H30.5166V99.3574Z" fill="#483D8B"/>
<path d="M99.3082 53.9373C95.9921 53.9902 93.5756 54.925 92.041 56.6889C90.5064 58.4705 89.5716 60.64 89.2011 63.1977C88.8484 65.773 88.6367 69.3713 88.6014 73.975C88.5485 80.325 88.3192 84.8582 87.9311 87.5923C87.5607 90.3263 86.6082 92.7252 85.0737 94.7536C83.5391 96.7821 81.7399 98.0698 79.6762 98.5813C77.5948 99.0928 75.143 99.3574 72.2855 99.3574H69.4456V91.2964H71.0331C74.5962 91.2964 76.9598 90.6438 78.1416 89.3561C79.341 88.0685 79.9231 85.1581 79.9231 80.6425C79.9231 73.0755 80.0995 67.5898 80.417 64.2207C80.7521 60.8341 81.6517 58.0119 83.151 55.7188C84.6503 53.4257 87.1727 51.4325 90.7357 49.7392C87.208 48.2928 84.5445 45.9821 82.6924 42.8248C80.858 39.6498 79.9231 34.1464 79.9231 26.3324C79.9231 19.1358 79.782 14.726 79.4645 13.1385C79.147 11.5334 78.5649 10.2987 77.683 9.43442C76.801 8.57012 74.5962 8.14671 71.0331 8.14671H69.4456V0.0858154H72.2855C75.143 0.0858154 77.6124 0.350317 79.6938 0.879517C81.7752 1.42632 83.6096 2.73161 85.1795 4.81301C86.7493 6.89441 87.7018 9.27562 88.0723 11.9744C88.425 14.6555 88.6014 19.171 88.6014 25.5034C88.6014 29.9484 88.7955 33.4762 89.1482 36.1044C89.5186 38.7149 90.4711 40.9198 92.0234 42.7189C93.5756 44.5005 95.9921 45.4353 99.3082 45.5059V53.9373V53.9373Z" fill="#483D8B"/>
<path d="M50.184 20.829C51.9655 20.829 53.5001 21.464 54.7701 22.7517C56.0224 24.0217 56.6574 25.5739 56.6574 27.3554C56.6574 29.1899 56.0224 30.7597 54.7701 32.0297C53.5001 33.3174 51.9655 33.9524 50.184 33.9524C48.3848 33.9524 46.8326 33.3174 45.5626 32.065C44.2749 30.795 43.6399 29.2604 43.6399 27.4613C43.6399 25.6621 44.3102 24.1099 45.6331 22.8046C46.9737 21.4817 48.473 20.829 50.184 20.829V20.829ZM44.6277 90.5732L41.8408 87.1513C48.8963 81.401 52.4241 76.5856 52.4241 72.7226C52.4241 72.264 52.3888 71.7172 52.3183 71.0646C51.7362 71.3115 51.1541 71.4879 50.6073 71.629C50.0428 71.7701 49.5313 71.8407 49.0374 71.8407C47.3794 71.8407 46.0388 71.3115 45.0334 70.2356C44.028 69.1596 43.5341 67.8014 43.5341 66.1433C43.5341 64.5206 44.1338 63.1095 45.3509 61.91C46.5503 60.6929 48.0144 60.0932 49.7077 60.0932C52.0537 60.0932 54.0645 61.0281 55.7402 62.9154C57.4159 64.7851 58.2449 67.2193 58.2449 70.1826C58.2449 72.1229 57.8569 74.1514 57.0631 76.2681C56.2694 78.3847 55.1228 80.3603 53.6059 82.1594C52.089 83.9763 49.0903 86.7808 44.6277 90.5732V90.5732Z" fill="#483D8B"/>
</svg>
