<?xml version="1.0" encoding="UTF-8"?>
<!DOCTYPE svg PUBLIC "-//W3C//DTD SVG 1.1//EN" "http://www.w3.org/Graphics/SVG/1.1/DTD/svg11.dtd">
<!-- Creator: CorelDRAW 2018 (64-Bit) -->
<svg xmlns="http://www.w3.org/2000/svg" xml:space="preserve" width="210mm" height="297mm" version="1.1" style="shape-rendering:geometricPrecision; text-rendering:geometricPrecision; image-rendering:optimizeQuality; fill-rule:evenodd; clip-rule:evenodd"
viewBox="0 0 21000 29700"
 xmlns:xlink="http://www.w3.org/1999/xlink">
 <defs>
  <style type="text/css">
   <![CDATA[
    .fil0 {fill:white}
   ]]>
  </style>
 </defs>
 <g id="Слой_x0020_1">
  <metadata id="CorelCorpID_0Corel-Layer"/>
  <g id="_2591820976672">
   <path class="fil0" d="M16773.65 15694.71l0 4328.92 -2509.8 0 0 -4038.8c0,-1014.1 -362.37,-1706.64 -1271.09,-1706.64 -693.47,0 -1105.44,466.25 -1287.37,917.71 -66.07,161.34 -83.1,385.39 -83.1,611.68l0 4215.87 -2509.99 0c0,0 33.69,-6840.4 0,-7548.48l2510.17 0 0 1069.69c-5.05,8.42 -12.17,16.66 -16.66,24.71l16.66 0 0 -24.71c333.54,-513.23 928.38,-1246.94 2261.98,-1246.94 1651.24,0 2889.2,1078.86 2889.2,3396.99l0 0zm-10287 -6858.37c-858.56,0 -1420.26,563.58 -1420.26,1304.03 0,724.73 545.42,1304.59 1387.32,1304.59l16.28 0c875.41,0 1419.7,-579.86 1419.7,-1304.59 -16.66,-740.46 -544.29,-1304.03 -1403.04,-1304.03l0 0zm-1271.09 11187.29l2509.05 0 0 -7548.66 -2509.05 0 0 7548.66z"/>
  </g>
 </g>
</svg>
