<?xml version="1.0" encoding="UTF-8"?>
<!DOCTYPE svg PUBLIC "-//W3C//DTD SVG 1.1//EN" "http://www.w3.org/Graphics/SVG/1.1/DTD/svg11.dtd">
<!-- Creator: CorelDRAW 2018 (64-Bit) -->
<svg xmlns="http://www.w3.org/2000/svg" xml:space="preserve" width="210mm" height="297mm" version="1.1" style="shape-rendering:geometricPrecision; text-rendering:geometricPrecision; image-rendering:optimizeQuality; fill-rule:evenodd; clip-rule:evenodd"
viewBox="0 0 21000 29700"
 xmlns:xlink="http://www.w3.org/1999/xlink"
 enable-background="new 0 0 841.9 595.3">
 <defs>
  <style type="text/css">
   <![CDATA[
    .fil0 {fill:#EA548D}
   ]]>
  </style>
 </defs>
 <g id="Слой_x0020_1">
  <metadata id="CorelCorpID_0Corel-Layer"/>
  <g id="_1983416895264">
   <path class="fil0" d="M16619.91 14821.32c0,-810.67 -1015.2,-1578.93 -2571.68,-2055.35 359.19,-1586.41 199.55,-2848.56 -503.86,-3252.64 -162.13,-94.79 -351.7,-139.68 -558.74,-139.68l0 556.24c114.74,0 207.03,22.45 284.36,64.85 339.23,194.56 486.4,935.38 371.66,1888.23 -27.44,234.47 -72.34,481.41 -127.21,733.34 -488.89,-119.73 -1022.69,-212.02 -1583.92,-271.89 -336.74,-461.46 -685.95,-880.51 -1037.65,-1247.18 813.16,-755.79 1576.43,-1169.85 2095.26,-1169.85l0 -556.24c0,0 0,0 0,0 -685.95,0 -1583.92,488.89 -2491.86,1336.98 -907.95,-843.09 -1805.92,-1327 -2491.86,-1327l0 556.24c516.33,0 1282.1,411.57 2095.26,1162.37 -349.21,366.67 -698.42,783.23 -1030.17,1244.68 -563.72,59.86 -1097.52,152.16 -1586.41,274.38 -57.37,-249.44 -99.77,-491.39 -129.71,-723.36 -117.23,-952.84 27.44,-1693.67 364.18,-1890.72 74.83,-44.9 172.11,-64.85 286.85,-64.85l0 -556.24c0,0 0,0 0,0 -209.53,0 -399.1,44.9 -563.72,139.68 -700.91,404.09 -858.06,1663.74 -496.38,3245.16 -1551.49,478.92 -2561.71,1244.68 -2561.71,2052.86 0,810.67 1015.2,1578.93 2571.68,2055.35 -359.19,1586.41 -199.55,2848.56 503.86,3252.64 162.13,94.79 351.7,139.68 561.23,139.68 685.95,0 1583.92,-488.89 2491.86,-1336.98 907.95,843.09 1805.92,1327 2491.86,1327 209.53,0 399.1,-44.9 563.72,-139.68 700.91,-404.09 858.06,-1663.74 496.38,-3245.16 1546.5,-476.43 2556.72,-1244.69 2556.72,-2052.86zm-3247.66 -1663.74c-92.29,321.77 -207.03,653.52 -336.74,985.27 -102.27,-199.55 -209.53,-399.1 -326.76,-598.65 -114.74,-199.55 -236.96,-394.11 -359.19,-583.68 354.2,52.39 695.93,117.24 1022.69,197.06zm-1142.41 2656.49c-194.56,336.74 -394.11,656.02 -601.14,952.84 -371.66,32.43 -748.31,49.89 -1127.45,49.89 -376.65,0 -753.3,-17.46 -1122.46,-47.39 -207.03,-296.83 -409.07,-613.61 -603.63,-947.86 -189.57,-326.76 -361.68,-658.51 -518.83,-992.75 154.65,-334.24 329.26,-668.49 516.33,-995.25 194.56,-336.74 394.11,-656.02 601.14,-952.84 371.66,-32.43 748.31,-49.89 1127.45,-49.89 376.65,0 753.3,17.46 1122.46,47.39 207.03,296.83 409.07,613.61 603.63,947.86 189.57,326.76 361.68,658.51 518.83,992.75 -157.15,334.24 -329.26,668.49 -516.33,995.25zm805.67 -324.27c134.7,334.24 249.44,668.49 344.22,992.75 -326.76,79.82 -670.98,147.17 -1027.68,199.55 122.22,-192.07 244.45,-389.12 359.19,-591.16 114.75,-199.55 222.01,-401.59 324.27,-601.14zm-2529.27 2661.48c-231.98,-239.46 -463.95,-506.35 -693.43,-798.19 224.49,9.98 453.97,17.46 685.95,17.46 234.47,0 466.44,-4.99 693.43,-17.46 -224.5,291.84 -456.47,558.73 -685.95,798.19zm-1855.81 -1469.17c-354.2,-52.38 -695.93,-117.23 -1022.69,-197.05 92.29,-321.77 207.03,-653.52 336.74,-985.27 102.27,199.55 209.53,399.1 326.76,598.65 117.24,199.53 236.97,394.09 359.19,583.67zm1843.33 -5190.76c231.98,239.46 463.95,506.35 693.43,798.19 -224.49,-9.98 -453.97,-17.46 -685.95,-17.46 -234.47,0 -466.44,4.99 -693.43,17.46 224.5,-291.84 456.47,-558.73 685.95,-798.19zm-1845.82 1469.17c-122.22,192.07 -244.45,389.12 -359.19,591.16 -114.74,199.55 -222,399.1 -324.27,598.65 -134.7,-334.24 -249.44,-668.49 -344.22,-992.75 326.76,-77.33 670.99,-144.67 1027.68,-197.06zm-2257.39 3122.94c-883,-376.65 -1454.21,-870.53 -1454.21,-1262.15 0,-391.61 571.21,-887.99 1454.21,-1262.15 214.51,-92.29 448.98,-174.61 690.94,-251.93 142.18,488.89 329.26,997.74 561.23,1519.06 -229.48,518.83 -414.06,1025.18 -553.75,1511.58 -246.95,-77.31 -481.42,-162.12 -698.42,-254.41zm1341.96 3564.44c-339.23,-194.56 -486.4,-935.38 -371.66,-1888.23 27.44,-234.47 72.34,-481.41 127.21,-733.34 488.89,119.73 1022.69,212.02 1583.92,271.89 336.74,461.46 685.95,880.51 1037.65,1247.18 -813.16,755.79 -1576.43,1169.85 -2095.26,1169.85 -112.24,-2.5 -207.03,-24.95 -281.86,-67.35zm5916.62 -1900.7c117.23,952.84 -27.44,1693.67 -364.18,1890.72 -74.83,44.9 -172.11,64.85 -286.85,64.85 -516.33,0 -1282.1,-411.57 -2095.26,-1162.37 349.21,-366.67 698.42,-783.23 1030.17,-1244.68 563.72,-59.86 1097.52,-152.16 1586.41,-274.38 57.37,251.93 102.27,493.88 129.71,725.86zm960.32 -1663.74c-214.51,92.29 -448.98,174.61 -690.94,251.93 -142.18,-488.89 -329.26,-997.74 -561.23,-1519.06 229.48,-518.83 414.06,-1025.18 553.75,-1511.58 246.94,77.33 481.41,162.13 700.91,254.42 883,376.65 1454.21,870.53 1454.21,1262.15 -2.48,391.61 -573.69,887.99 -1456.7,1262.14z"/>
   <polygon class="fil0" points="8001.9,9381.12 8001.9,9381.12 "/>
   <circle class="fil0" cx="10498.75" cy="14821.32" r="1139.92"/>
   <polygon class="fil0" points="12983.13,9373.64 12983.13,9373.64 "/>
  </g>
 </g>
</svg>
