<svg width="124" height="110" viewBox="0 0 124 110" fill="none" xmlns="http://www.w3.org/2000/svg">
<path fill-rule="evenodd" clip-rule="evenodd" d="M123.199 55.2132C123.199 47.1065 113.047 39.4239 97.4823 34.6597C101.074 18.7956 99.4778 6.17408 92.4437 2.13328C90.8224 1.18538 88.9267 0.736487 86.8563 0.736487V6.29888C88.0037 6.29888 88.9266 6.52339 89.6999 6.94739C93.0922 8.89299 94.5639 16.3012 93.4165 25.8297C93.1421 28.1744 92.6931 30.6438 92.1444 33.1631C87.2555 31.9658 81.9175 31.0429 76.3052 30.4442C72.9378 25.8296 69.4457 21.6391 65.9287 17.9724C74.0603 10.4145 81.693 6.27388 86.8813 6.27388V0.711487C80.0218 0.711487 71.0421 5.60038 61.9627 14.0813C52.8832 5.65038 43.9035 0.811282 37.0441 0.811282V6.37368C42.2074 6.37368 49.8651 10.4894 57.9967 17.9974C54.5046 21.6641 51.0125 25.8297 47.695 30.4442C42.0578 31.0428 36.7198 31.9658 31.8309 33.188C31.2572 30.6936 30.8332 28.2741 30.5338 25.9544C29.3615 16.426 30.8082 9.01768 34.1756 7.04718C34.9239 6.59818 35.8967 6.39868 37.0441 6.39868V0.836282C34.9488 0.836282 33.0531 1.28528 31.4069 2.23308C24.3978 6.27398 22.8263 18.8705 26.4431 34.6847C10.9282 39.4739 0.825989 47.1315 0.825989 55.2133C0.825989 63.32 10.978 71.0026 26.5428 75.7668C22.9509 91.6309 24.5473 104.252 31.5814 108.293C33.2027 109.241 35.0984 109.69 37.1937 109.69C44.0532 109.69 53.0329 104.801 62.1123 96.3202C71.1918 104.751 80.1715 109.59 87.0309 109.59C89.1262 109.59 91.0219 109.141 92.6681 108.193C99.6772 104.152 101.249 91.556 97.6319 75.7418C113.097 70.9775 123.199 63.2949 123.199 55.2132V55.2132ZM90.7225 38.5758C89.7996 41.7935 88.6522 45.111 87.3551 48.4285C86.3324 46.433 85.2598 44.4375 84.0875 42.442C82.9401 40.4465 81.7179 38.5009 80.4956 36.6052C84.0376 37.1291 87.4549 37.7776 90.7225 38.5758ZM79.2984 65.1407C77.3528 68.5081 75.3573 71.7009 73.287 74.6691C69.5704 74.9934 65.8039 75.168 62.0125 75.168C58.246 75.168 54.4795 74.9934 50.7879 74.6941C48.7176 71.7258 46.6972 68.558 44.7516 65.2155C42.8559 61.9479 41.1348 58.6304 39.5633 55.288C41.1098 51.9456 42.8559 48.6031 44.7266 45.3355C46.6722 41.9681 48.6677 38.7753 50.738 35.8071C54.4546 35.4828 58.2211 35.3082 62.0125 35.3082C65.779 35.3082 69.5455 35.4828 73.2371 35.7821C75.3074 38.7504 77.3278 41.9182 79.2734 45.2607C81.1691 48.5283 82.8902 51.8458 84.4617 55.1882C82.8902 58.5306 81.1691 61.8731 79.2984 65.1407V65.1407ZM87.3551 61.898C88.7021 65.2404 89.8495 68.5829 90.7973 71.8255C87.5297 72.6237 84.0875 73.2972 80.5205 73.821C81.7427 71.9003 82.965 69.9298 84.1124 67.9094C85.2599 65.9139 86.3325 63.8935 87.3551 61.898ZM62.0624 88.5128C59.7426 86.1182 57.4229 83.4493 55.1281 80.5309C57.373 80.6307 59.6678 80.7055 61.9876 80.7055C64.3323 80.7055 66.652 80.6556 68.9219 80.5309C66.6769 83.4493 64.3572 86.1182 62.0624 88.5128ZM43.5043 73.8211C39.9623 73.2973 36.545 72.6488 33.2774 71.8506C34.2003 68.6329 35.3477 65.3154 36.6448 61.9979C37.6675 63.9934 38.7401 65.9889 39.9124 67.9844C41.0848 69.9797 42.2821 71.9253 43.5043 73.8211ZM61.9376 21.9135C64.2574 24.3081 66.5771 26.977 68.8719 29.8954C66.627 29.7956 64.3322 29.7208 62.0124 29.7208C59.6677 29.7208 57.348 29.7707 55.0781 29.8954C57.3231 26.977 59.6428 24.3081 61.9376 21.9135ZM43.4794 36.6052C42.2572 38.5259 41.0349 40.4964 39.8875 42.5168C38.7401 44.5123 37.6675 46.5078 36.6448 48.5033C35.2978 45.1609 34.1504 41.8184 33.2026 38.5758C36.4702 37.8025 39.9125 37.1291 43.4794 36.6052V36.6052ZM20.9055 67.8346C12.0755 64.0681 6.36339 59.1293 6.36339 55.2131C6.36339 51.297 12.0755 46.3332 20.9055 42.5916C23.0506 41.6687 25.3953 40.8455 27.8149 40.0723C29.2367 44.9612 31.1075 50.0497 33.4272 55.2629C31.1324 60.4512 29.2866 65.5147 27.8897 70.3787C25.4202 69.6056 23.0755 68.7575 20.9055 67.8346ZM34.3251 103.479C30.9328 101.533 29.4611 94.1252 30.6085 84.5967C30.8829 82.252 31.3319 79.7826 31.8806 77.2633C36.7695 78.4606 42.1075 79.3835 47.7198 79.9822C51.0872 84.5968 54.5793 88.7873 58.0963 92.454C49.9647 100.012 42.332 104.152 37.1437 104.152C36.0213 104.127 35.0734 103.903 34.3251 103.479ZM93.4913 84.472C94.6636 94.0004 93.2169 101.409 89.8495 103.379C89.1012 103.828 88.1284 104.028 86.981 104.028C81.8177 104.028 74.16 99.912 66.0284 92.404C69.5205 88.7373 73.0126 84.5717 76.3301 79.9572C81.9673 79.3586 87.3053 78.4356 92.1942 77.2134C92.7679 79.7327 93.2169 82.1522 93.4913 84.472V84.472ZM103.094 67.8346C100.949 68.7575 98.6047 69.5807 96.1851 70.3539C94.7633 65.465 92.8925 60.3765 90.5728 55.1633C92.8676 49.975 94.7134 44.9115 96.1103 40.0475C98.5797 40.8208 100.924 41.6688 103.119 42.5917C111.949 46.3582 117.661 51.297 117.661 55.2132C117.637 59.1293 111.925 64.0931 103.094 67.8346Z" fill="#483D8B"/>
<path d="M61.9875 66.6124C68.2831 66.6124 73.3867 61.5088 73.3867 55.2132C73.3867 48.9176 68.2831 43.814 61.9875 43.814C55.6919 43.814 50.5883 48.9176 50.5883 55.2132C50.5883 61.5088 55.6919 66.6124 61.9875 66.6124Z" fill="#483D8B"/>
</svg>
